<svg width="60" height="60" viewBox="0 0 60 60" fill="none" xmlns="http://www.w3.org/2000/svg">
<path d="M58.2225 0.619629H1.34158C1.07409 0.619629 0.817558 0.784373 0.628413 1.07762C0.439268 1.37087 0.333008 1.7686 0.333008 2.18332V57.5353C0.333008 57.95 0.439268 58.3477 0.628413 58.641C0.817558 58.9342 1.07409 59.099 1.34158 59.099H58.2225C58.49 59.099 58.7465 58.9342 58.9357 58.641C59.1248 58.3477 59.2311 57.95 59.2311 57.5353V2.18332C59.2311 1.7686 59.1248 1.37087 58.9357 1.07762C58.7465 0.784373 58.49 0.619629 58.2225 0.619629ZM48.3017 34.4323C48.4595 35.5406 48.6226 36.6867 48.4105 37.2552C48.1827 37.8655 47.4465 38.2204 46.7345 38.5635C46.1728 38.8342 45.5922 39.1142 45.0746 39.5785C44.5744 40.0271 44.1418 40.6558 43.7236 41.2637C43.1478 42.1008 42.604 42.8912 42.1123 42.8912C41.6205 42.8912 41.0767 42.1006 40.501 41.2637C40.0828 40.6558 39.6502 40.0269 39.15 39.5785C38.6324 39.1142 38.0518 38.8344 37.4901 38.5635C36.7781 38.2204 36.0419 37.8655 35.8142 37.2552C35.602 36.6867 35.7651 35.5406 35.9229 34.4321C36.0524 33.5222 36.1862 32.5815 36.1862 31.6185C36.1862 30.6554 36.0524 29.7145 35.9229 28.8046C35.7651 27.6963 35.602 26.5502 35.8142 25.9815C36.0419 25.3712 36.7781 25.0163 37.4901 24.6732C38.0518 24.4025 38.6324 24.1225 39.15 23.6582C39.6502 23.2095 40.0828 22.5809 40.501 21.973C41.0767 21.1361 41.6205 20.3455 42.1123 20.3455C42.604 20.3455 43.1479 21.1361 43.7236 21.973C44.1418 22.5809 44.5744 23.2095 45.0746 23.6582C45.5922 24.1223 46.1728 24.4023 46.7345 24.673C47.4465 25.0161 48.1827 25.371 48.4104 25.9812C48.6226 26.5498 48.4595 27.6959 48.3017 28.8042C48.1722 29.7141 48.0384 30.6548 48.0384 31.618C48.0384 32.5813 48.1722 33.5224 48.3017 34.4323ZM45.3864 20.0995C45.2936 19.9681 45.1994 19.8314 45.1033 19.6919C44.3452 18.5898 43.4018 17.2183 42.1123 17.2183C40.8228 17.2183 39.8793 18.5898 39.1213 19.6919C38.7707 20.2014 38.4395 20.6828 38.1399 20.9516C37.8178 21.2403 37.3678 21.4574 36.8912 21.6869C35.8597 22.1842 34.6907 22.7475 34.0682 24.4155C33.4633 26.0365 33.7235 27.8652 33.9532 29.4785C34.0641 30.2589 34.169 30.9963 34.169 31.6185C34.169 32.2406 34.0641 32.978 33.9532 33.7584C33.754 35.1576 33.5328 36.7184 33.8718 38.1655L29.7816 44.5835L3.75571 3.74701H55.8073L45.3864 20.0995ZM17.5617 29.8592L2.35016 53.727V5.99101L17.5617 29.8592ZM18.9794 32.0838L29.064 47.9073C29.1578 48.0545 29.2695 48.1714 29.3927 48.2511C29.5158 48.3309 29.648 48.372 29.7814 48.372C29.9149 48.372 30.047 48.3309 30.1702 48.2511C30.2934 48.1714 30.4051 48.0545 30.4989 47.9073L35.2068 40.52C35.7366 40.9914 36.3337 41.281 36.8912 41.5498C37.3678 41.7795 37.8179 41.9964 38.1399 42.2851C38.4395 42.5539 38.7706 43.0353 39.1213 43.5448C39.8793 44.6469 40.8228 46.0184 42.1123 46.0184C43.4017 46.0184 44.3452 44.6469 45.1033 43.5448C45.4539 43.0351 45.785 42.5539 46.0848 42.2849C46.2799 42.1098 46.5225 41.9613 46.7891 41.8204L55.8076 55.9712H3.75545L18.9794 32.0838ZM48.8745 40.6432C49.3829 40.23 49.8403 39.6685 50.1564 38.8214C50.7613 37.2004 50.5011 35.3717 50.2714 33.7584C50.1605 32.978 50.0556 32.2406 50.0556 31.6185C50.0556 30.9963 50.1605 30.2589 50.2714 29.4785C50.5011 27.8652 50.7613 26.0367 50.1563 24.4155C49.5338 22.7475 48.3648 22.1842 47.3332 21.6869L47.2392 21.6415L57.2139 5.98934V53.7284L48.8745 40.6432Z" fill="black"/>
<path d="M42.1123 23.6568C39.2808 23.6568 36.9772 27.2283 36.9772 31.6181C36.9772 36.0079 39.2808 39.5793 42.1123 39.5793C44.9439 39.5793 47.2475 36.0079 47.2475 31.6181C47.2475 27.2283 44.9437 23.6568 42.1123 23.6568ZM42.1123 36.452C40.3932 36.452 38.9943 34.2834 38.9943 31.6181C38.9943 28.9527 40.393 26.7842 42.1123 26.7842C43.8316 26.7842 45.2303 28.9527 45.2303 31.6181C45.2303 34.2834 43.8315 36.452 42.1123 36.452Z" fill="black"/>
</svg>
