<svg width="60" height="60" viewBox="0 0 60 60" fill="none" xmlns="http://www.w3.org/2000/svg">
<path d="M32.7424 0.0991211C38.0348 0.0991211 39.1529 0.159381 41.8564 0.277669C44.9723 0.427202 47.1201 0.931599 48.9725 1.67704C50.913 2.42024 52.5603 3.46251 54.1767 5.09845C55.824 6.7344 56.8229 8.40159 57.5881 10.3656C58.3224 12.2404 58.7943 14.4119 58.9399 17.5968C59.0876 20.4245 59.1163 21.5248 59.1163 27.4772V32.2377C59.1163 38.19 59.0876 39.2903 58.9399 42.1181C58.8891 44.7182 58.3974 47.1844 57.5374 49.4698L57.5859 49.3202C56.8207 51.2843 55.8218 52.9515 54.2054 54.5874C52.5581 56.2546 50.913 57.2656 48.9725 58.0401C47.1201 58.7833 44.9745 59.2609 41.8564 59.4082C39.0624 59.5577 37.9466 59.5867 32.0654 59.5867H27.3905C21.5093 59.5867 20.4221 59.5577 17.5995 59.4082C15.0305 59.3568 12.5938 58.8591 10.3357 57.9887L10.4834 58.0378C8.44804 57.25 6.71257 56.0872 5.28141 54.6164L5.27921 54.6142C3.81056 53.159 2.65064 51.3914 1.90089 49.4162L1.86781 49.3158C1.05851 47.1821 0.566756 44.7137 0.516037 42.1359V42.1136C0.399163 39.788 0.333008 37.0629 0.333008 34.3245C0.333008 33.8201 0.335213 33.3157 0.339623 32.8135V32.8894V26.7898C0.339623 21.4333 0.399163 20.3018 0.516037 17.5655C0.663783 14.4119 1.16215 12.2381 1.86781 10.3634C2.633 8.39935 3.63195 6.73217 5.27921 5.09622C6.70154 3.60758 8.44143 2.44033 10.3886 1.70605L10.4834 1.6748C12.5894 0.846789 15.0261 0.337928 17.573 0.277669H17.5995C20.3053 0.159381 21.4211 0.0991211 26.7135 0.0991211H32.7424ZM32.802 5.45555H26.6561C21.5688 5.45555 20.4817 5.51581 17.8355 5.6341C14.9842 5.75239 13.4251 6.23 12.3953 6.64512C11.0127 7.18077 10.0424 7.8347 9.01477 8.87697C7.98716 9.91924 7.33884 10.9013 6.8096 12.2984C6.4281 13.3407 5.92753 14.9163 5.81065 17.8334C5.69378 20.5116 5.63424 21.5829 5.63424 26.7607V32.9497C5.63424 38.1275 5.69378 39.1988 5.81065 41.877C5.92753 44.7628 6.39944 46.3407 6.8096 47.383C7.33884 48.7824 7.98495 49.7644 9.01477 50.8044C10.0446 51.8445 11.0149 52.5006 12.3953 53.0363C13.4251 53.4536 14.982 53.929 17.8641 54.0473C20.7154 54.1968 21.7452 54.2258 28.0961 54.2258H31.3598C37.7393 54.2258 38.7405 54.1968 41.6204 54.0473C44.4717 53.929 46.0308 53.4514 47.0606 53.0363C48.4432 52.5006 49.4135 51.8467 50.4411 50.8044C51.4687 49.7621 52.1171 48.7801 52.6463 47.383C53.0587 46.3407 53.5284 44.765 53.6452 41.877C53.793 38.96 53.8217 37.949 53.8217 31.4923V28.2181C53.8217 21.7614 53.793 20.7191 53.6452 17.8021C53.5284 14.9163 53.0565 13.3384 52.6463 12.2962C52.1479 10.9548 51.396 9.80988 50.4433 8.87697L50.4411 8.87474C49.515 7.90835 48.3859 7.14729 47.1223 6.66298L47.0606 6.64289C45.4464 6.0269 43.5808 5.65865 41.6315 5.63187H41.6204C39.3535 5.51581 36.7007 5.44885 34.0302 5.44885C33.598 5.44885 33.1658 5.45109 32.7336 5.45332H32.7998L32.802 5.45555ZM29.7434 14.5615C38.0811 14.5615 44.8422 21.4021 44.8422 29.8429C44.8422 38.2838 38.0833 45.1244 29.7434 45.1244C21.4056 45.1244 14.6446 38.2838 14.6446 29.8429C14.6446 21.4021 21.4034 14.5615 29.7434 14.5615ZM29.7434 19.9179C24.3275 19.9179 19.937 24.3615 19.937 29.8429C19.937 35.3243 24.3275 39.7679 29.7434 39.7679C35.1593 39.7679 39.5498 35.3243 39.5498 29.8429C39.5498 24.3615 35.1593 19.9179 29.7434 19.9179ZM45.4155 10.3946C47.3649 10.3946 48.9438 11.9926 48.9438 13.9656C48.9438 15.9385 47.3649 17.5365 45.4155 17.5365C43.4662 17.5365 41.8873 15.9385 41.8873 13.9656C41.8873 11.9926 43.4662 10.3946 45.4155 10.3946Z" fill="black"/>
</svg>
